0
SECTION
2
HEADER
9
$ACADVER
1
AC1009
9
$INSUNITS
70
4
9
$MEASUREMENT
70
1
9
$EXTMIN
10
-55.803800
20
-79.235300
30
0.000000
9
$EXTMAX
10
55.803800
20
89.758266
30
0.000000
0
ENDSEC
0
SECTION
2
TABLES
0
TABLE
2
LTYPE
70
2
0
LTYPE
2
CONTINUOUS
70
0
3
Solid line
72
65
73
0
40
0.000000
0
LTYPE
2
DASHED
70
0
3
Dashed __ __ __
72
65
73
2
40
15.000000
49
10.000000
49
-5.000000
0
ENDTAB
0
TABLE
2
LAYER
70
6
0
LAYER
2
PLATE_OUTLINE
70
0
62
7
6
CONTINUOUS
0
LAYER
2
HOLES
70
0
62
1
6
CONTINUOUS
0
LAYER
2
HOLE_CENTRES
70
0
62
1
6
CONTINUOUS
0
LAYER
2
CENTRELINES
70
0
62
4
6
DASHED
0
LAYER
2
SECTION
70
0
62
8
6
CONTINUOUS
0
LAYER
2
ANNOTATION
70
0
62
3
6
CONTINUOUS
0
ENDTAB
0
TABLE
2
STYLE
70
1
0
STYLE
2
STANDARD
70
0
40
0.000000
41
1.000000
50
0.000000
71
0
42
2.500000
3
txt
4

0
ENDTAB
0
ENDSEC
0
SECTION
2
ENTITIES
0
CIRCLE
8
PLATE_OUTLINE
10
0.000000
20
0.000000
30
0.000000
40
42.926000
0
LINE
8
CENTRELINES
10
-45.072300
20
0.000000
30
0.000000
11
45.072300
21
0.000000
31
0.000000
0
LINE
8
CENTRELINES
10
0.000000
20
-45.072300
30
0.000000
11
0.000000
21
45.072300
31
0.000000
0
CIRCLE
8
CENTRELINES
10
0.000000
20
0.000000
30
0.000000
40
12.391627
0
CIRCLE
8
CENTRELINES
10
0.000000
20
0.000000
30
0.000000
40
24.783253
0
CIRCLE
8
CENTRELINES
10
0.000000
20
0.000000
30
0.000000
40
37.174880
0
CIRCLE
8
HOLES
10
12.391627
20
0.000000
30
0.000000
40
0.600000
0
POINT
8
HOLE_CENTRES
10
12.391627
20
0.000000
30
0.000000
0
LINE
8
CENTRELINES
10
11.431627
20
0.000000
30
0.000000
11
13.351627
21
0.000000
31
0.000000
0
LINE
8
CENTRELINES
10
12.391627
20
-0.960000
30
0.000000
11
12.391627
21
0.960000
31
0.000000
0
CIRCLE
8
HOLES
10
7.726053
20
9.688164
30
0.000000
40
0.600000
0
POINT
8
HOLE_CENTRES
10
7.726053
20
9.688164
30
0.000000
0
LINE
8
CENTRELINES
10
6.766053
20
9.688164
30
0.000000
11
8.686053
21
9.688164
31
0.000000
0
LINE
8
CENTRELINES
10
7.726053
20
8.728164
30
0.000000
11
7.726053
21
10.648164
31
0.000000
0
CIRCLE
8
HOLES
10
-2.757396
20
12.080943
30
0.000000
40
0.600000
0
POINT
8
HOLE_CENTRES
10
-2.757396
20
12.080943
30
0.000000
0
LINE
8
CENTRELINES
10
-3.717396
20
12.080943
30
0.000000
11
-1.797396
21
12.080943
31
0.000000
0
LINE
8
CENTRELINES
10
-2.757396
20
11.120943
30
0.000000
11
-2.757396
21
13.040943
31
0.000000
0
CIRCLE
8
HOLES
10
-11.164470
20
5.376525
30
0.000000
40
0.600000
0
POINT
8
HOLE_CENTRES
10
-11.164470
20
5.376525
30
0.000000
0
LINE
8
CENTRELINES
10
-12.124470
20
5.376525
30
0.000000
11
-10.204470
21
5.376525
31
0.000000
0
LINE
8
CENTRELINES
10
-11.164470
20
4.416525
30
0.000000
11
-11.164470
21
6.336525
31
0.000000
0
CIRCLE
8
HOLES
10
-11.164470
20
-5.376525
30
0.000000
40
0.600000
0
POINT
8
HOLE_CENTRES
10
-11.164470
20
-5.376525
30
0.000000
0
LINE
8
CENTRELINES
10
-12.124470
20
-5.376525
30
0.000000
11
-10.204470
21
-5.376525
31
0.000000
0
LINE
8
CENTRELINES
10
-11.164470
20
-6.336525
30
0.000000
11
-11.164470
21
-4.416525
31
0.000000
0
CIRCLE
8
HOLES
10
-2.757396
20
-12.080943
30
0.000000
40
0.600000
0
POINT
8
HOLE_CENTRES
10
-2.757396
20
-12.080943
30
0.000000
0
LINE
8
CENTRELINES
10
-3.717396
20
-12.080943
30
0.000000
11
-1.797396
21
-12.080943
31
0.000000
0
LINE
8
CENTRELINES
10
-2.757396
20
-13.040943
30
0.000000
11
-2.757396
21
-11.120943
31
0.000000
0
CIRCLE
8
HOLES
10
7.726053
20
-9.688164
30
0.000000
40
0.600000
0
POINT
8
HOLE_CENTRES
10
7.726053
20
-9.688164
30
0.000000
0
LINE
8
CENTRELINES
10
6.766053
20
-9.688164
30
0.000000
11
8.686053
21
-9.688164
31
0.000000
0
LINE
8
CENTRELINES
10
7.726053
20
-10.648164
30
0.000000
11
7.726053
21
-8.728164
31
0.000000
0
CIRCLE
8
HOLES
10
24.161885
20
5.514793
30
0.000000
40
0.600000
0
POINT
8
HOLE_CENTRES
10
24.161885
20
5.514793
30
0.000000
0
LINE
8
CENTRELINES
10
23.201885
20
5.514793
30
0.000000
11
25.121885
21
5.514793
31
0.000000
0
LINE
8
CENTRELINES
10
24.161885
20
4.554793
30
0.000000
11
24.161885
21
6.474793
31
0.000000
0
CIRCLE
8
HOLES
10
19.376328
20
15.452106
30
0.000000
40
0.600000
0
POINT
8
HOLE_CENTRES
10
19.376328
20
15.452106
30
0.000000
0
LINE
8
CENTRELINES
10
18.416328
20
15.452106
30
0.000000
11
20.336328
21
15.452106
31
0.000000
0
LINE
8
CENTRELINES
10
19.376328
20
14.492106
30
0.000000
11
19.376328
21
16.412106
31
0.000000
0
CIRCLE
8
HOLES
10
10.753051
20
22.328940
30
0.000000
40
0.600000
0
POINT
8
HOLE_CENTRES
10
10.753051
20
22.328940
30
0.000000
0
LINE
8
CENTRELINES
10
9.793051
20
22.328940
30
0.000000
11
11.713051
21
22.328940
31
0.000000
0
LINE
8
CENTRELINES
10
10.753051
20
21.368940
30
0.000000
11
10.753051
21
23.288940
31
0.000000
0
CIRCLE
8
HOLES
10
0.000000
20
24.783253
30
0.000000
40
0.600000
0
POINT
8
HOLE_CENTRES
10
0.000000
20
24.783253
30
0.000000
0
LINE
8
CENTRELINES
10
-0.960000
20
24.783253
30
0.000000
11
0.960000
21
24.783253
31
0.000000
0
LINE
8
CENTRELINES
10
0.000000
20
23.823253
30
0.000000
11
0.000000
21
25.743253
31
0.000000
0
CIRCLE
8
HOLES
10
-10.753051
20
22.328940
30
0.000000
40
0.600000
0
POINT
8
HOLE_CENTRES
10
-10.753051
20
22.328940
30
0.000000
0
LINE
8
CENTRELINES
10
-11.713051
20
22.328940
30
0.000000
11
-9.793051
21
22.328940
31
0.000000
0
LINE
8
CENTRELINES
10
-10.753051
20
21.368940
30
0.000000
11
-10.753051
21
23.288940
31
0.000000
0
CIRCLE
8
HOLES
10
-19.376328
20
15.452106
30
0.000000
40
0.600000
0
POINT
8
HOLE_CENTRES
10
-19.376328
20
15.452106
30
0.000000
0
LINE
8
CENTRELINES
10
-20.336328
20
15.452106
30
0.000000
11
-18.416328
21
15.452106
31
0.000000
0
LINE
8
CENTRELINES
10
-19.376328
20
14.492106
30
0.000000
11
-19.376328
21
16.412106
31
0.000000
0
CIRCLE
8
HOLES
10
-24.161885
20
5.514793
30
0.000000
40
0.600000
0
POINT
8
HOLE_CENTRES
10
-24.161885
20
5.514793
30
0.000000
0
LINE
8
CENTRELINES
10
-25.121885
20
5.514793
30
0.000000
11
-23.201885
21
5.514793
31
0.000000
0
LINE
8
CENTRELINES
10
-24.161885
20
4.554793
30
0.000000
11
-24.161885
21
6.474793
31
0.000000
0
CIRCLE
8
HOLES
10
-24.161885
20
-5.514793
30
0.000000
40
0.600000
0
POINT
8
HOLE_CENTRES
10
-24.161885
20
-5.514793
30
0.000000
0
LINE
8
CENTRELINES
10
-25.121885
20
-5.514793
30
0.000000
11
-23.201885
21
-5.514793
31
0.000000
0
LINE
8
CENTRELINES
10
-24.161885
20
-6.474793
30
0.000000
11
-24.161885
21
-4.554793
31
0.000000
0
CIRCLE
8
HOLES
10
-19.376328
20
-15.452106
30
0.000000
40
0.600000
0
POINT
8
HOLE_CENTRES
10
-19.376328
20
-15.452106
30
0.000000
0
LINE
8
CENTRELINES
10
-20.336328
20
-15.452106
30
0.000000
11
-18.416328
21
-15.452106
31
0.000000
0
LINE
8
CENTRELINES
10
-19.376328
20
-16.412106
30
0.000000
11
-19.376328
21
-14.492106
31
0.000000
0
CIRCLE
8
HOLES
10
-10.753051
20
-22.328940
30
0.000000
40
0.600000
0
POINT
8
HOLE_CENTRES
10
-10.753051
20
-22.328940
30
0.000000
0
LINE
8
CENTRELINES
10
-11.713051
20
-22.328940
30
0.000000
11
-9.793051
21
-22.328940
31
0.000000
0
LINE
8
CENTRELINES
10
-10.753051
20
-23.288940
30
0.000000
11
-10.753051
21
-21.368940
31
0.000000
0
CIRCLE
8
HOLES
10
-0.000000
20
-24.783253
30
0.000000
40
0.600000
0
POINT
8
HOLE_CENTRES
10
-0.000000
20
-24.783253
30
0.000000
0
LINE
8
CENTRELINES
10
-0.960000
20
-24.783253
30
0.000000
11
0.960000
21
-24.783253
31
0.000000
0
LINE
8
CENTRELINES
10
-0.000000
20
-25.743253
30
0.000000
11
-0.000000
21
-23.823253
31
0.000000
0
CIRCLE
8
HOLES
10
10.753051
20
-22.328940
30
0.000000
40
0.600000
0
POINT
8
HOLE_CENTRES
10
10.753051
20
-22.328940
30
0.000000
0
LINE
8
CENTRELINES
10
9.793051
20
-22.328940
30
0.000000
11
11.713051
21
-22.328940
31
0.000000
0
LINE
8
CENTRELINES
10
10.753051
20
-23.288940
30
0.000000
11
10.753051
21
-21.368940
31
0.000000
0
CIRCLE
8
HOLES
10
19.376328
20
-15.452106
30
0.000000
40
0.600000
0
POINT
8
HOLE_CENTRES
10
19.376328
20
-15.452106
30
0.000000
0
LINE
8
CENTRELINES
10
18.416328
20
-15.452106
30
0.000000
11
20.336328
21
-15.452106
31
0.000000
0
LINE
8
CENTRELINES
10
19.376328
20
-16.412106
30
0.000000
11
19.376328
21
-14.492106
31
0.000000
0
CIRCLE
8
HOLES
10
24.161885
20
-5.514793
30
0.000000
40
0.600000
0
POINT
8
HOLE_CENTRES
10
24.161885
20
-5.514793
30
0.000000
0
LINE
8
CENTRELINES
10
23.201885
20
-5.514793
30
0.000000
11
25.121885
21
-5.514793
31
0.000000
0
LINE
8
CENTRELINES
10
24.161885
20
-6.474793
30
0.000000
11
24.161885
21
-4.554793
31
0.000000
0
CIRCLE
8
HOLES
10
37.174880
20
0.000000
30
0.000000
40
0.600000
0
POINT
8
HOLE_CENTRES
10
37.174880
20
0.000000
30
0.000000
0
LINE
8
CENTRELINES
10
36.214880
20
0.000000
30
0.000000
11
38.134880
21
0.000000
31
0.000000
0
LINE
8
CENTRELINES
10
37.174880
20
-0.960000
30
0.000000
11
37.174880
21
0.960000
31
0.000000
0
CIRCLE
8
HOLES
10
35.355412
20
11.487670
30
0.000000
40
0.600000
0
POINT
8
HOLE_CENTRES
10
35.355412
20
11.487670
30
0.000000
0
LINE
8
CENTRELINES
10
34.395412
20
11.487670
30
0.000000
11
36.315412
21
11.487670
31
0.000000
0
LINE
8
CENTRELINES
10
35.355412
20
10.527670
30
0.000000
11
35.355412
21
12.447670
31
0.000000
0
CIRCLE
8
HOLES
10
30.075110
20
21.850846
30
0.000000
40
0.600000
0
POINT
8
HOLE_CENTRES
10
30.075110
20
21.850846
30
0.000000
0
LINE
8
CENTRELINES
10
29.115110
20
21.850846
30
0.000000
11
31.035110
21
21.850846
31
0.000000
0
LINE
8
CENTRELINES
10
30.075110
20
20.890846
30
0.000000
11
30.075110
21
22.810846
31
0.000000
0
CIRCLE
8
HOLES
10
21.850846
20
30.075110
30
0.000000
40
0.600000
0
POINT
8
HOLE_CENTRES
10
21.850846
20
30.075110
30
0.000000
0
LINE
8
CENTRELINES
10
20.890846
20
30.075110
30
0.000000
11
22.810846
21
30.075110
31
0.000000
0
LINE
8
CENTRELINES
10
21.850846
20
29.115110
30
0.000000
11
21.850846
21
31.035110
31
0.000000
0
CIRCLE
8
HOLES
10
11.487670
20
35.355412
30
0.000000
40
0.600000
0
POINT
8
HOLE_CENTRES
10
11.487670
20
35.355412
30
0.000000
0
LINE
8
CENTRELINES
10
10.527670
20
35.355412
30
0.000000
11
12.447670
21
35.355412
31
0.000000
0
LINE
8
CENTRELINES
10
11.487670
20
34.395412
30
0.000000
11
11.487670
21
36.315412
31
0.000000
0
CIRCLE
8
HOLES
10
0.000000
20
37.174880
30
0.000000
40
0.600000
0
POINT
8
HOLE_CENTRES
10
0.000000
20
37.174880
30
0.000000
0
LINE
8
CENTRELINES
10
-0.960000
20
37.174880
30
0.000000
11
0.960000
21
37.174880
31
0.000000
0
LINE
8
CENTRELINES
10
0.000000
20
36.214880
30
0.000000
11
0.000000
21
38.134880
31
0.000000
0
CIRCLE
8
HOLES
10
-11.487670
20
35.355412
30
0.000000
40
0.600000
0
POINT
8
HOLE_CENTRES
10
-11.487670
20
35.355412
30
0.000000
0
LINE
8
CENTRELINES
10
-12.447670
20
35.355412
30
0.000000
11
-10.527670
21
35.355412
31
0.000000
0
LINE
8
CENTRELINES
10
-11.487670
20
34.395412
30
0.000000
11
-11.487670
21
36.315412
31
0.000000
0
CIRCLE
8
HOLES
10
-21.850846
20
30.075110
30
0.000000
40
0.600000
0
POINT
8
HOLE_CENTRES
10
-21.850846
20
30.075110
30
0.000000
0
LINE
8
CENTRELINES
10
-22.810846
20
30.075110
30
0.000000
11
-20.890846
21
30.075110
31
0.000000
0
LINE
8
CENTRELINES
10
-21.850846
20
29.115110
30
0.000000
11
-21.850846
21
31.035110
31
0.000000
0
CIRCLE
8
HOLES
10
-30.075110
20
21.850846
30
0.000000
40
0.600000
0
POINT
8
HOLE_CENTRES
10
-30.075110
20
21.850846
30
0.000000
0
LINE
8
CENTRELINES
10
-31.035110
20
21.850846
30
0.000000
11
-29.115110
21
21.850846
31
0.000000
0
LINE
8
CENTRELINES
10
-30.075110
20
20.890846
30
0.000000
11
-30.075110
21
22.810846
31
0.000000
0
CIRCLE
8
HOLES
10
-35.355412
20
11.487670
30
0.000000
40
0.600000
0
POINT
8
HOLE_CENTRES
10
-35.355412
20
11.487670
30
0.000000
0
LINE
8
CENTRELINES
10
-36.315412
20
11.487670
30
0.000000
11
-34.395412
21
11.487670
31
0.000000
0
LINE
8
CENTRELINES
10
-35.355412
20
10.527670
30
0.000000
11
-35.355412
21
12.447670
31
0.000000
0
CIRCLE
8
HOLES
10
-37.174880
20
0.000000
30
0.000000
40
0.600000
0
POINT
8
HOLE_CENTRES
10
-37.174880
20
0.000000
30
0.000000
0
LINE
8
CENTRELINES
10
-38.134880
20
0.000000
30
0.000000
11
-36.214880
21
0.000000
31
0.000000
0
LINE
8
CENTRELINES
10
-37.174880
20
-0.960000
30
0.000000
11
-37.174880
21
0.960000
31
0.000000
0
CIRCLE
8
HOLES
10
-35.355412
20
-11.487670
30
0.000000
40
0.600000
0
POINT
8
HOLE_CENTRES
10
-35.355412
20
-11.487670
30
0.000000
0
LINE
8
CENTRELINES
10
-36.315412
20
-11.487670
30
0.000000
11
-34.395412
21
-11.487670
31
0.000000
0
LINE
8
CENTRELINES
10
-35.355412
20
-12.447670
30
0.000000
11
-35.355412
21
-10.527670
31
0.000000
0
CIRCLE
8
HOLES
10
-30.075110
20
-21.850846
30
0.000000
40
0.600000
0
POINT
8
HOLE_CENTRES
10
-30.075110
20
-21.850846
30
0.000000
0
LINE
8
CENTRELINES
10
-31.035110
20
-21.850846
30
0.000000
11
-29.115110
21
-21.850846
31
0.000000
0
LINE
8
CENTRELINES
10
-30.075110
20
-22.810846
30
0.000000
11
-30.075110
21
-20.890846
31
0.000000
0
CIRCLE
8
HOLES
10
-21.850846
20
-30.075110
30
0.000000
40
0.600000
0
POINT
8
HOLE_CENTRES
10
-21.850846
20
-30.075110
30
0.000000
0
LINE
8
CENTRELINES
10
-22.810846
20
-30.075110
30
0.000000
11
-20.890846
21
-30.075110
31
0.000000
0
LINE
8
CENTRELINES
10
-21.850846
20
-31.035110
30
0.000000
11
-21.850846
21
-29.115110
31
0.000000
0
CIRCLE
8
HOLES
10
-11.487670
20
-35.355412
30
0.000000
40
0.600000
0
POINT
8
HOLE_CENTRES
10
-11.487670
20
-35.355412
30
0.000000
0
LINE
8
CENTRELINES
10
-12.447670
20
-35.355412
30
0.000000
11
-10.527670
21
-35.355412
31
0.000000
0
LINE
8
CENTRELINES
10
-11.487670
20
-36.315412
30
0.000000
11
-11.487670
21
-34.395412
31
0.000000
0
CIRCLE
8
HOLES
10
-0.000000
20
-37.174880
30
0.000000
40
0.600000
0
POINT
8
HOLE_CENTRES
10
-0.000000
20
-37.174880
30
0.000000
0
LINE
8
CENTRELINES
10
-0.960000
20
-37.174880
30
0.000000
11
0.960000
21
-37.174880
31
0.000000
0
LINE
8
CENTRELINES
10
-0.000000
20
-38.134880
30
0.000000
11
-0.000000
21
-36.214880
31
0.000000
0
CIRCLE
8
HOLES
10
11.487670
20
-35.355412
30
0.000000
40
0.600000
0
POINT
8
HOLE_CENTRES
10
11.487670
20
-35.355412
30
0.000000
0
LINE
8
CENTRELINES
10
10.527670
20
-35.355412
30
0.000000
11
12.447670
21
-35.355412
31
0.000000
0
LINE
8
CENTRELINES
10
11.487670
20
-36.315412
30
0.000000
11
11.487670
21
-34.395412
31
0.000000
0
CIRCLE
8
HOLES
10
21.850846
20
-30.075110
30
0.000000
40
0.600000
0
POINT
8
HOLE_CENTRES
10
21.850846
20
-30.075110
30
0.000000
0
LINE
8
CENTRELINES
10
20.890846
20
-30.075110
30
0.000000
11
22.810846
21
-30.075110
31
0.000000
0
LINE
8
CENTRELINES
10
21.850846
20
-31.035110
30
0.000000
11
21.850846
21
-29.115110
31
0.000000
0
CIRCLE
8
HOLES
10
30.075110
20
-21.850846
30
0.000000
40
0.600000
0
POINT
8
HOLE_CENTRES
10
30.075110
20
-21.850846
30
0.000000
0
LINE
8
CENTRELINES
10
29.115110
20
-21.850846
30
0.000000
11
31.035110
21
-21.850846
31
0.000000
0
LINE
8
CENTRELINES
10
30.075110
20
-22.810846
30
0.000000
11
30.075110
21
-20.890846
31
0.000000
0
CIRCLE
8
HOLES
10
35.355412
20
-11.487670
30
0.000000
40
0.600000
0
POINT
8
HOLE_CENTRES
10
35.355412
20
-11.487670
30
0.000000
0
LINE
8
CENTRELINES
10
34.395412
20
-11.487670
30
0.000000
11
36.315412
21
-11.487670
31
0.000000
0
LINE
8
CENTRELINES
10
35.355412
20
-12.447670
30
0.000000
11
35.355412
21
-10.527670
31
0.000000
0
LINE
8
SECTION
10
-42.926000
20
-66.357500
30
0.000000
11
42.926000
21
-66.357500
31
0.000000
0
LINE
8
SECTION
10
-42.926000
20
-53.657500
30
0.000000
11
42.926000
21
-53.657500
31
0.000000
0
LINE
8
SECTION
10
-42.926000
20
-66.357500
30
0.000000
11
-42.926000
21
-53.657500
31
0.000000
0
LINE
8
SECTION
10
42.926000
20
-66.357500
30
0.000000
11
42.926000
21
-53.657500
31
0.000000
0
LINE
8
SECTION
10
11.791627
20
-66.357500
30
0.000000
11
11.791627
21
-53.657500
31
0.000000
0
LINE
8
SECTION
10
12.991627
20
-66.357500
30
0.000000
11
12.991627
21
-53.657500
31
0.000000
0
LINE
8
SECTION
10
7.126053
20
-66.357500
30
0.000000
11
7.126053
21
-53.657500
31
0.000000
0
LINE
8
SECTION
10
8.326053
20
-66.357500
30
0.000000
11
8.326053
21
-53.657500
31
0.000000
0
LINE
8
SECTION
10
-3.357396
20
-66.357500
30
0.000000
11
-3.357396
21
-53.657500
31
0.000000
0
LINE
8
SECTION
10
-2.157396
20
-66.357500
30
0.000000
11
-2.157396
21
-53.657500
31
0.000000
0
LINE
8
SECTION
10
-11.764470
20
-66.357500
30
0.000000
11
-11.764470
21
-53.657500
31
0.000000
0
LINE
8
SECTION
10
-10.564470
20
-66.357500
30
0.000000
11
-10.564470
21
-53.657500
31
0.000000
0
LINE
8
SECTION
10
-11.764470
20
-66.357500
30
0.000000
11
-11.764470
21
-53.657500
31
0.000000
0
LINE
8
SECTION
10
-10.564470
20
-66.357500
30
0.000000
11
-10.564470
21
-53.657500
31
0.000000
0
LINE
8
SECTION
10
-3.357396
20
-66.357500
30
0.000000
11
-3.357396
21
-53.657500
31
0.000000
0
LINE
8
SECTION
10
-2.157396
20
-66.357500
30
0.000000
11
-2.157396
21
-53.657500
31
0.000000
0
LINE
8
SECTION
10
7.126053
20
-66.357500
30
0.000000
11
7.126053
21
-53.657500
31
0.000000
0
LINE
8
SECTION
10
8.326053
20
-66.357500
30
0.000000
11
8.326053
21
-53.657500
31
0.000000
0
LINE
8
SECTION
10
23.561885
20
-66.357500
30
0.000000
11
23.561885
21
-53.657500
31
0.000000
0
LINE
8
SECTION
10
24.761885
20
-66.357500
30
0.000000
11
24.761885
21
-53.657500
31
0.000000
0
LINE
8
SECTION
10
18.776328
20
-66.357500
30
0.000000
11
18.776328
21
-53.657500
31
0.000000
0
LINE
8
SECTION
10
19.976328
20
-66.357500
30
0.000000
11
19.976328
21
-53.657500
31
0.000000
0
LINE
8
SECTION
10
10.153051
20
-66.357500
30
0.000000
11
10.153051
21
-53.657500
31
0.000000
0
LINE
8
SECTION
10
11.353051
20
-66.357500
30
0.000000
11
11.353051
21
-53.657500
31
0.000000
0
LINE
8
SECTION
10
-0.600000
20
-66.357500
30
0.000000
11
-0.600000
21
-53.657500
31
0.000000
0
LINE
8
SECTION
10
0.600000
20
-66.357500
30
0.000000
11
0.600000
21
-53.657500
31
0.000000
0
LINE
8
SECTION
10
-11.353051
20
-66.357500
30
0.000000
11
-11.353051
21
-53.657500
31
0.000000
0
LINE
8
SECTION
10
-10.153051
20
-66.357500
30
0.000000
11
-10.153051
21
-53.657500
31
0.000000
0
LINE
8
SECTION
10
-19.976328
20
-66.357500
30
0.000000
11
-19.976328
21
-53.657500
31
0.000000
0
LINE
8
SECTION
10
-18.776328
20
-66.357500
30
0.000000
11
-18.776328
21
-53.657500
31
0.000000
0
LINE
8
SECTION
10
-24.761885
20
-66.357500
30
0.000000
11
-24.761885
21
-53.657500
31
0.000000
0
LINE
8
SECTION
10
-23.561885
20
-66.357500
30
0.000000
11
-23.561885
21
-53.657500
31
0.000000
0
LINE
8
SECTION
10
-24.761885
20
-66.357500
30
0.000000
11
-24.761885
21
-53.657500
31
0.000000
0
LINE
8
SECTION
10
-23.561885
20
-66.357500
30
0.000000
11
-23.561885
21
-53.657500
31
0.000000
0
LINE
8
SECTION
10
-19.976328
20
-66.357500
30
0.000000
11
-19.976328
21
-53.657500
31
0.000000
0
LINE
8
SECTION
10
-18.776328
20
-66.357500
30
0.000000
11
-18.776328
21
-53.657500
31
0.000000
0
LINE
8
SECTION
10
-11.353051
20
-66.357500
30
0.000000
11
-11.353051
21
-53.657500
31
0.000000
0
LINE
8
SECTION
10
-10.153051
20
-66.357500
30
0.000000
11
-10.153051
21
-53.657500
31
0.000000
0
LINE
8
SECTION
10
-0.600000
20
-66.357500
30
0.000000
11
-0.600000
21
-53.657500
31
0.000000
0
LINE
8
SECTION
10
0.600000
20
-66.357500
30
0.000000
11
0.600000
21
-53.657500
31
0.000000
0
LINE
8
SECTION
10
10.153051
20
-66.357500
30
0.000000
11
10.153051
21
-53.657500
31
0.000000
0
LINE
8
SECTION
10
11.353051
20
-66.357500
30
0.000000
11
11.353051
21
-53.657500
31
0.000000
0
LINE
8
SECTION
10
18.776328
20
-66.357500
30
0.000000
11
18.776328
21
-53.657500
31
0.000000
0
LINE
8
SECTION
10
19.976328
20
-66.357500
30
0.000000
11
19.976328
21
-53.657500
31
0.000000
0
LINE
8
SECTION
10
23.561885
20
-66.357500
30
0.000000
11
23.561885
21
-53.657500
31
0.000000
0
LINE
8
SECTION
10
24.761885
20
-66.357500
30
0.000000
11
24.761885
21
-53.657500
31
0.000000
0
LINE
8
SECTION
10
36.574880
20
-66.357500
30
0.000000
11
36.574880
21
-53.657500
31
0.000000
0
LINE
8
SECTION
10
37.774880
20
-66.357500
30
0.000000
11
37.774880
21
-53.657500
31
0.000000
0
LINE
8
SECTION
10
34.755412
20
-66.357500
30
0.000000
11
34.755412
21
-53.657500
31
0.000000
0
LINE
8
SECTION
10
35.955412
20
-66.357500
30
0.000000
11
35.955412
21
-53.657500
31
0.000000
0
LINE
8
SECTION
10
29.475110
20
-66.357500
30
0.000000
11
29.475110
21
-53.657500
31
0.000000
0
LINE
8
SECTION
10
30.675110
20
-66.357500
30
0.000000
11
30.675110
21
-53.657500
31
0.000000
0
LINE
8
SECTION
10
21.250846
20
-66.357500
30
0.000000
11
21.250846
21
-53.657500
31
0.000000
0
LINE
8
SECTION
10
22.450846
20
-66.357500
30
0.000000
11
22.450846
21
-53.657500
31
0.000000
0
LINE
8
SECTION
10
10.887670
20
-66.357500
30
0.000000
11
10.887670
21
-53.657500
31
0.000000
0
LINE
8
SECTION
10
12.087670
20
-66.357500
30
0.000000
11
12.087670
21
-53.657500
31
0.000000
0
LINE
8
SECTION
10
-0.600000
20
-66.357500
30
0.000000
11
-0.600000
21
-53.657500
31
0.000000
0
LINE
8
SECTION
10
0.600000
20
-66.357500
30
0.000000
11
0.600000
21
-53.657500
31
0.000000
0
LINE
8
SECTION
10
-12.087670
20
-66.357500
30
0.000000
11
-12.087670
21
-53.657500
31
0.000000
0
LINE
8
SECTION
10
-10.887670
20
-66.357500
30
0.000000
11
-10.887670
21
-53.657500
31
0.000000
0
LINE
8
SECTION
10
-22.450846
20
-66.357500
30
0.000000
11
-22.450846
21
-53.657500
31
0.000000
0
LINE
8
SECTION
10
-21.250846
20
-66.357500
30
0.000000
11
-21.250846
21
-53.657500
31
0.000000
0
LINE
8
SECTION
10
-30.675110
20
-66.357500
30
0.000000
11
-30.675110
21
-53.657500
31
0.000000
0
LINE
8
SECTION
10
-29.475110
20
-66.357500
30
0.000000
11
-29.475110
21
-53.657500
31
0.000000
0
LINE
8
SECTION
10
-35.955412
20
-66.357500
30
0.000000
11
-35.955412
21
-53.657500
31
0.000000
0
LINE
8
SECTION
10
-34.755412
20
-66.357500
30
0.000000
11
-34.755412
21
-53.657500
31
0.000000
0
LINE
8
SECTION
10
-37.774880
20
-66.357500
30
0.000000
11
-37.774880
21
-53.657500
31
0.000000
0
LINE
8
SECTION
10
-36.574880
20
-66.357500
30
0.000000
11
-36.574880
21
-53.657500
31
0.000000
0
LINE
8
SECTION
10
-35.955412
20
-66.357500
30
0.000000
11
-35.955412
21
-53.657500
31
0.000000
0
LINE
8
SECTION
10
-34.755412
20
-66.357500
30
0.000000
11
-34.755412
21
-53.657500
31
0.000000
0
LINE
8
SECTION
10
-30.675110
20
-66.357500
30
0.000000
11
-30.675110
21
-53.657500
31
0.000000
0
LINE
8
SECTION
10
-29.475110
20
-66.357500
30
0.000000
11
-29.475110
21
-53.657500
31
0.000000
0
LINE
8
SECTION
10
-22.450846
20
-66.357500
30
0.000000
11
-22.450846
21
-53.657500
31
0.000000
0
LINE
8
SECTION
10
-21.250846
20
-66.357500
30
0.000000
11
-21.250846
21
-53.657500
31
0.000000
0
LINE
8
SECTION
10
-12.087670
20
-66.357500
30
0.000000
11
-12.087670
21
-53.657500
31
0.000000
0
LINE
8
SECTION
10
-10.887670
20
-66.357500
30
0.000000
11
-10.887670
21
-53.657500
31
0.000000
0
LINE
8
SECTION
10
-0.600000
20
-66.357500
30
0.000000
11
-0.600000
21
-53.657500
31
0.000000
0
LINE
8
SECTION
10
0.600000
20
-66.357500
30
0.000000
11
0.600000
21
-53.657500
31
0.000000
0
LINE
8
SECTION
10
10.887670
20
-66.357500
30
0.000000
11
10.887670
21
-53.657500
31
0.000000
0
LINE
8
SECTION
10
12.087670
20
-66.357500
30
0.000000
11
12.087670
21
-53.657500
31
0.000000
0
LINE
8
SECTION
10
21.250846
20
-66.357500
30
0.000000
11
21.250846
21
-53.657500
31
0.000000
0
LINE
8
SECTION
10
22.450846
20
-66.357500
30
0.000000
11
22.450846
21
-53.657500
31
0.000000
0
LINE
8
SECTION
10
29.475110
20
-66.357500
30
0.000000
11
29.475110
21
-53.657500
31
0.000000
0
LINE
8
SECTION
10
30.675110
20
-66.357500
30
0.000000
11
30.675110
21
-53.657500
31
0.000000
0
LINE
8
SECTION
10
34.755412
20
-66.357500
30
0.000000
11
34.755412
21
-53.657500
31
0.000000
0
LINE
8
SECTION
10
35.955412
20
-66.357500
30
0.000000
11
35.955412
21
-53.657500
31
0.000000
0
TEXT
8
ANNOTATION
10
-42.926000
20
85.422740
30
0.000000
40
1.931670
1
INJECTOR ORIFICE PLATE  /  INJ-PLATE-V2.2B
7
STANDARD
0
TEXT
8
ANNOTATION
10
-42.926000
20
81.945734
30
0.000000
40
1.931670
1
PLATE %%c85.85 x 12.70 THK
7
STANDARD
0
TEXT
8
ANNOTATION
10
-42.926000
20
78.468728
30
0.000000
40
1.931670
1
41 x %%c1.200 THRU  (TOTAL AREA 46.37 mm2, L/D 10.58)
7
STANDARD
0
TEXT
8
ANNOTATION
10
-42.926000
20
74.991722
30
0.000000
40
1.931670
1
7 x %%c1.200 EQ SP ON %%c24.78 B.C.
7
STANDARD
0
TEXT
8
ANNOTATION
10
-42.926000
20
71.514716
30
0.000000
40
1.931670
1
14 x %%c1.200 EQ SP ON %%c49.57 B.C. (STAGGERED 12.86%%d)
7
STANDARD
0
TEXT
8
ANNOTATION
10
-42.926000
20
68.037710
30
0.000000
40
1.931670
1
20 x %%c1.200 EQ SP ON %%c74.35 B.C.
7
STANDARD
0
TEXT
8
ANNOTATION
10
-42.926000
20
64.560704
30
0.000000
40
1.931670
1
MIN WEB 9.55   EDGE MARGIN 5.15
7
STANDARD
0
TEXT
8
ANNOTATION
10
-42.926000
20
61.083698
30
0.000000
40
1.931670
1
UNITS mm. ORIGIN AT PLATE CENTRE. VIEWED FROM INLET FACE.
7
STANDARD
0
TEXT
8
ANNOTATION
10
-42.926000
20
57.606692
30
0.000000
40
1.931670
1
SIZED WITH HEM MODEL, Cd 0.700
7
STANDARD
0
TEXT
8
ANNOTATION
10
-42.926000
20
54.129686
30
0.000000
40
1.931670
1
PROJECT Mini Hybrid V2.2
7
STANDARD
0
TEXT
8
ANNOTATION
10
-42.926000
20
50.652680
30
0.000000
40
1.931670
1
GENERATED 2026-09-21 BY n2o-injector-sizing
7
STANDARD
0
ENDSEC
0
EOF
