0
SECTION
2
HEADER
9
$ACADVER
1
AC1009
9
$INSUNITS
70
4
9
$MEASUREMENT
70
1
9
$EXTMIN
10
-93.900000
20
-146.655800
30
0.000000
9
$EXTMAX
10
93.900000
20
93.235272
30
0.000000
0
ENDSEC
0
SECTION
2
TABLES
0
TABLE
2
LTYPE
70
2
0
LTYPE
2
CONTINUOUS
70
0
3
Solid line
72
65
73
0
40
0.000000
0
LTYPE
2
DASHED
70
0
3
Dashed __ __ __
72
65
73
2
40
15.000000
49
10.000000
49
-5.000000
0
ENDTAB
0
TABLE
2
LAYER
70
5
0
LAYER
2
GRAIN_OUTLINE
70
0
62
7
6
CONTINUOUS
0
LAYER
2
PORTS
70
0
62
1
6
CONTINUOUS
0
LAYER
2
CENTRELINES
70
0
62
4
6
DASHED
0
LAYER
2
SECTION
70
0
62
8
6
CONTINUOUS
0
LAYER
2
ANNOTATION
70
0
62
3
6
CONTINUOUS
0
ENDTAB
0
TABLE
2
STYLE
70
1
0
STYLE
2
STANDARD
70
0
40
0.000000
41
1.000000
50
0.000000
71
0
42
2.500000
3
txt
4

0
ENDTAB
0
ENDSEC
0
SECTION
2
ENTITIES
0
CIRCLE
8
GRAIN_OUTLINE
10
0.000000
20
0.000000
30
0.000000
40
42.926000
0
LINE
8
CENTRELINES
10
-45.072300
20
0.000000
30
0.000000
11
45.072300
21
0.000000
31
0.000000
0
LINE
8
CENTRELINES
10
0.000000
20
-45.072300
30
0.000000
11
0.000000
21
45.072300
31
0.000000
0
CIRCLE
8
PORTS
10
0.000000
20
0.000000
30
0.000000
40
7.067615
0
ARC
8
PORTS
10
0.000000
20
0.000000
30
0.000000
40
24.595491
50
20.874547
51
69.125453
0
ARC
8
PORTS
10
0.000000
20
0.000000
30
0.000000
40
34.162062
50
14.864861
51
75.135139
0
LINE
8
PORTS
10
22.981114
20
8.763938
30
0.000000
11
33.018781
21
8.763938
31
0.000000
0
LINE
8
PORTS
10
8.763938
20
22.981114
30
0.000000
11
8.763938
21
33.018781
31
0.000000
0
ARC
8
PORTS
10
0.000000
20
0.000000
30
0.000000
40
24.595491
50
110.874547
51
159.125453
0
ARC
8
PORTS
10
0.000000
20
0.000000
30
0.000000
40
34.162062
50
104.864861
51
165.135139
0
LINE
8
PORTS
10
-8.763938
20
22.981114
30
0.000000
11
-8.763938
21
33.018781
31
0.000000
0
LINE
8
PORTS
10
-22.981114
20
8.763938
30
0.000000
11
-33.018781
21
8.763938
31
0.000000
0
ARC
8
PORTS
10
0.000000
20
0.000000
30
0.000000
40
24.595491
50
200.874547
51
249.125453
0
ARC
8
PORTS
10
0.000000
20
0.000000
30
0.000000
40
34.162062
50
194.864861
51
255.135139
0
LINE
8
PORTS
10
-22.981114
20
-8.763938
30
0.000000
11
-33.018781
21
-8.763938
31
0.000000
0
LINE
8
PORTS
10
-8.763938
20
-22.981114
30
0.000000
11
-8.763938
21
-33.018781
31
0.000000
0
ARC
8
PORTS
10
0.000000
20
0.000000
30
0.000000
40
24.595491
50
290.874547
51
339.125453
0
ARC
8
PORTS
10
0.000000
20
0.000000
30
0.000000
40
34.162062
50
284.864861
51
345.135139
0
LINE
8
PORTS
10
8.763938
20
-22.981114
30
0.000000
11
8.763938
21
-33.018781
31
0.000000
0
LINE
8
PORTS
10
22.981114
20
-8.763938
30
0.000000
11
33.018781
21
-8.763938
31
0.000000
0
LINE
8
CENTRELINES
10
0.000000
20
0.000000
30
0.000000
11
45.072300
21
0.000000
31
0.000000
0
LINE
8
CENTRELINES
10
0.000000
20
0.000000
30
0.000000
11
0.000000
21
45.072300
31
0.000000
0
LINE
8
CENTRELINES
10
0.000000
20
0.000000
30
0.000000
11
-45.072300
21
0.000000
31
0.000000
0
LINE
8
CENTRELINES
10
0.000000
20
0.000000
30
0.000000
11
-0.000000
21
-45.072300
31
0.000000
0
LINE
8
SECTION
10
-88.900000
20
-55.803800
30
0.000000
11
88.900000
21
-55.803800
31
0.000000
0
LINE
8
SECTION
10
-88.900000
20
-141.655800
30
0.000000
11
88.900000
21
-141.655800
31
0.000000
0
LINE
8
SECTION
10
-88.900000
20
-55.803800
30
0.000000
11
-88.900000
21
-141.655800
31
0.000000
0
LINE
8
SECTION
10
88.900000
20
-55.803800
30
0.000000
11
88.900000
21
-141.655800
31
0.000000
0
LINE
8
SECTION
10
-88.900000
20
-132.891862
30
0.000000
11
88.900000
21
-132.891862
31
0.000000
0
LINE
8
SECTION
10
-88.900000
20
-123.325291
30
0.000000
11
88.900000
21
-123.325291
31
0.000000
0
LINE
8
SECTION
10
-88.900000
20
-105.797415
30
0.000000
11
88.900000
21
-105.797415
31
0.000000
0
LINE
8
SECTION
10
-88.900000
20
-91.662185
30
0.000000
11
88.900000
21
-91.662185
31
0.000000
0
LINE
8
SECTION
10
-88.900000
20
-74.134309
30
0.000000
11
88.900000
21
-74.134309
31
0.000000
0
LINE
8
SECTION
10
-88.900000
20
-64.567738
30
0.000000
11
88.900000
21
-64.567738
31
0.000000
0
TEXT
8
ANNOTATION
10
-42.926000
20
78.468728
30
0.000000
40
1.931670
1
FUEL GRAIN
7
STANDARD
0
TEXT
8
ANNOTATION
10
-42.926000
20
74.991722
30
0.000000
40
1.931670
1
GRAIN %%c85.85 OD x 177.80 LONG
7
STANDARD
0
TEXT
8
ANNOTATION
10
-42.926000
20
71.514716
30
0.000000
40
1.931670
1
CENTRE PORT %%c14.14
7
STANDARD
0
TEXT
8
ANNOTATION
10
-42.926000
20
68.037710
30
0.000000
40
1.931670
1
4 SECTOR PORTS R24.60 TO R34.16, EQ SP (90%%d PITCH)
7
STANDARD
0
TEXT
8
ANNOTATION
10
-42.926000
20
64.560704
30
0.000000
40
1.931670
1
SPOKES 17.53 THK, RING WEB 17.53, WALL WEB 8.76
7
STANDARD
0
TEXT
8
ANNOTATION
10
-42.926000
20
61.083698
30
0.000000
40
1.931670
1
PORT AREA 1241.4 mm2, PERIMETER 351.3 mm, WALL WEB 8.76
7
STANDARD
0
TEXT
8
ANNOTATION
10
-42.926000
20
57.606692
30
0.000000
40
1.931670
1
UNITS mm. ORIGIN ON GRAIN AXIS. VIEWED FROM FORWARD END.
7
STANDARD
0
TEXT
8
ANNOTATION
10
-42.926000
20
54.129686
30
0.000000
40
1.931670
1
PROJECT V2.2 N2O / PARAFFIN
7
STANDARD
0
TEXT
8
ANNOTATION
10
-42.926000
20
50.652680
30
0.000000
40
1.931670
1
GENERATED 2026-09-29 BY HASTE
7
STANDARD
0
ENDSEC
0
EOF
