0
SECTION
2
HEADER
9
$ACADVER
1
AC1009
9
$INSUNITS
70
4
9
$MEASUREMENT
70
1
9
$EXTMIN
10
-55.803800
20
-79.235300
30
0.000000
9
$EXTMAX
10
55.803800
20
89.758266
30
0.000000
0
ENDSEC
0
SECTION
2
TABLES
0
TABLE
2
LTYPE
70
2
0
LTYPE
2
CONTINUOUS
70
0
3
Solid line
72
65
73
0
40
0.000000
0
LTYPE
2
DASHED
70
0
3
Dashed __ __ __
72
65
73
2
40
15.000000
49
10.000000
49
-5.000000
0
ENDTAB
0
TABLE
2
LAYER
70
6
0
LAYER
2
PLATE_OUTLINE
70
0
62
7
6
CONTINUOUS
0
LAYER
2
HOLES
70
0
62
1
6
CONTINUOUS
0
LAYER
2
HOLE_CENTRES
70
0
62
1
6
CONTINUOUS
0
LAYER
2
CENTRELINES
70
0
62
4
6
DASHED
0
LAYER
2
SECTION
70
0
62
8
6
CONTINUOUS
0
LAYER
2
ANNOTATION
70
0
62
3
6
CONTINUOUS
0
ENDTAB
0
TABLE
2
STYLE
70
1
0
STYLE
2
STANDARD
70
0
40
0.000000
41
1.000000
50
0.000000
71
0
42
2.500000
3
txt
4

0
ENDTAB
0
ENDSEC
0
SECTION
2
ENTITIES
0
CIRCLE
8
PLATE_OUTLINE
10
0.000000
20
0.000000
30
0.000000
40
42.926000
0
LINE
8
CENTRELINES
10
-45.072300
20
0.000000
30
0.000000
11
45.072300
21
0.000000
31
0.000000
0
LINE
8
CENTRELINES
10
0.000000
20
-45.072300
30
0.000000
11
0.000000
21
45.072300
31
0.000000
0
CIRCLE
8
CENTRELINES
10
0.000000
20
0.000000
30
0.000000
40
12.391627
0
CIRCLE
8
CENTRELINES
10
0.000000
20
0.000000
30
0.000000
40
24.783253
0
CIRCLE
8
CENTRELINES
10
0.000000
20
0.000000
30
0.000000
40
37.174880
0
CIRCLE
8
HOLES
10
0.000000
20
0.000000
30
0.000000
40
0.600000
0
POINT
8
HOLE_CENTRES
10
0.000000
20
0.000000
30
0.000000
0
LINE
8
CENTRELINES
10
-0.960000
20
0.000000
30
0.000000
11
0.960000
21
0.000000
31
0.000000
0
LINE
8
CENTRELINES
10
0.000000
20
-0.960000
30
0.000000
11
0.000000
21
0.960000
31
0.000000
0
CIRCLE
8
HOLES
10
12.391627
20
0.000000
30
0.000000
40
0.600000
0
POINT
8
HOLE_CENTRES
10
12.391627
20
0.000000
30
0.000000
0
LINE
8
CENTRELINES
10
11.431627
20
0.000000
30
0.000000
11
13.351627
21
0.000000
31
0.000000
0
LINE
8
CENTRELINES
10
12.391627
20
-0.960000
30
0.000000
11
12.391627
21
0.960000
31
0.000000
0
CIRCLE
8
HOLES
10
6.195813
20
10.731463
30
0.000000
40
0.600000
0
POINT
8
HOLE_CENTRES
10
6.195813
20
10.731463
30
0.000000
0
LINE
8
CENTRELINES
10
5.235813
20
10.731463
30
0.000000
11
7.155813
21
10.731463
31
0.000000
0
LINE
8
CENTRELINES
10
6.195813
20
9.771463
30
0.000000
11
6.195813
21
11.691463
31
0.000000
0
CIRCLE
8
HOLES
10
-6.195813
20
10.731463
30
0.000000
40
0.600000
0
POINT
8
HOLE_CENTRES
10
-6.195813
20
10.731463
30
0.000000
0
LINE
8
CENTRELINES
10
-7.155813
20
10.731463
30
0.000000
11
-5.235813
21
10.731463
31
0.000000
0
LINE
8
CENTRELINES
10
-6.195813
20
9.771463
30
0.000000
11
-6.195813
21
11.691463
31
0.000000
0
CIRCLE
8
HOLES
10
-12.391627
20
0.000000
30
0.000000
40
0.600000
0
POINT
8
HOLE_CENTRES
10
-12.391627
20
0.000000
30
0.000000
0
LINE
8
CENTRELINES
10
-13.351627
20
0.000000
30
0.000000
11
-11.431627
21
0.000000
31
0.000000
0
LINE
8
CENTRELINES
10
-12.391627
20
-0.960000
30
0.000000
11
-12.391627
21
0.960000
31
0.000000
0
CIRCLE
8
HOLES
10
-6.195813
20
-10.731463
30
0.000000
40
0.600000
0
POINT
8
HOLE_CENTRES
10
-6.195813
20
-10.731463
30
0.000000
0
LINE
8
CENTRELINES
10
-7.155813
20
-10.731463
30
0.000000
11
-5.235813
21
-10.731463
31
0.000000
0
LINE
8
CENTRELINES
10
-6.195813
20
-11.691463
30
0.000000
11
-6.195813
21
-9.771463
31
0.000000
0
CIRCLE
8
HOLES
10
6.195813
20
-10.731463
30
0.000000
40
0.600000
0
POINT
8
HOLE_CENTRES
10
6.195813
20
-10.731463
30
0.000000
0
LINE
8
CENTRELINES
10
5.235813
20
-10.731463
30
0.000000
11
7.155813
21
-10.731463
31
0.000000
0
LINE
8
CENTRELINES
10
6.195813
20
-11.691463
30
0.000000
11
6.195813
21
-9.771463
31
0.000000
0
CIRCLE
8
HOLES
10
24.063097
20
5.931021
30
0.000000
40
0.600000
0
POINT
8
HOLE_CENTRES
10
24.063097
20
5.931021
30
0.000000
0
LINE
8
CENTRELINES
10
23.103097
20
5.931021
30
0.000000
11
25.023097
21
5.931021
31
0.000000
0
LINE
8
CENTRELINES
10
24.063097
20
4.971021
30
0.000000
11
24.063097
21
6.891021
31
0.000000
0
CIRCLE
8
HOLES
10
18.550531
20
16.434337
30
0.000000
40
0.600000
0
POINT
8
HOLE_CENTRES
10
18.550531
20
16.434337
30
0.000000
0
LINE
8
CENTRELINES
10
17.590531
20
16.434337
30
0.000000
11
19.510531
21
16.434337
31
0.000000
0
LINE
8
CENTRELINES
10
18.550531
20
15.474337
30
0.000000
11
18.550531
21
17.394337
31
0.000000
0
CIRCLE
8
HOLES
10
8.788263
20
23.172744
30
0.000000
40
0.600000
0
POINT
8
HOLE_CENTRES
10
8.788263
20
23.172744
30
0.000000
0
LINE
8
CENTRELINES
10
7.828263
20
23.172744
30
0.000000
11
9.748263
21
23.172744
31
0.000000
0
LINE
8
CENTRELINES
10
8.788263
20
22.212744
30
0.000000
11
8.788263
21
24.132744
31
0.000000
0
CIRCLE
8
HOLES
10
-2.987291
20
24.602556
30
0.000000
40
0.600000
0
POINT
8
HOLE_CENTRES
10
-2.987291
20
24.602556
30
0.000000
0
LINE
8
CENTRELINES
10
-3.947291
20
24.602556
30
0.000000
11
-2.027291
21
24.602556
31
0.000000
0
LINE
8
CENTRELINES
10
-2.987291
20
23.642556
30
0.000000
11
-2.987291
21
25.562556
31
0.000000
0
CIRCLE
8
HOLES
10
-14.078493
20
20.396218
30
0.000000
40
0.600000
0
POINT
8
HOLE_CENTRES
10
-14.078493
20
20.396218
30
0.000000
0
LINE
8
CENTRELINES
10
-15.038493
20
20.396218
30
0.000000
11
-13.118493
21
20.396218
31
0.000000
0
LINE
8
CENTRELINES
10
-14.078493
20
19.436218
30
0.000000
11
-14.078493
21
21.356218
31
0.000000
0
CIRCLE
8
HOLES
10
-21.944481
20
11.517352
30
0.000000
40
0.600000
0
POINT
8
HOLE_CENTRES
10
-21.944481
20
11.517352
30
0.000000
0
LINE
8
CENTRELINES
10
-22.904481
20
11.517352
30
0.000000
11
-20.984481
21
11.517352
31
0.000000
0
LINE
8
CENTRELINES
10
-21.944481
20
10.557352
30
0.000000
11
-21.944481
21
12.477352
31
0.000000
0
CIRCLE
8
HOLES
10
-24.783253
20
0.000000
30
0.000000
40
0.600000
0
POINT
8
HOLE_CENTRES
10
-24.783253
20
0.000000
30
0.000000
0
LINE
8
CENTRELINES
10
-25.743253
20
0.000000
30
0.000000
11
-23.823253
21
0.000000
31
0.000000
0
LINE
8
CENTRELINES
10
-24.783253
20
-0.960000
30
0.000000
11
-24.783253
21
0.960000
31
0.000000
0
CIRCLE
8
HOLES
10
-21.944481
20
-11.517352
30
0.000000
40
0.600000
0
POINT
8
HOLE_CENTRES
10
-21.944481
20
-11.517352
30
0.000000
0
LINE
8
CENTRELINES
10
-22.904481
20
-11.517352
30
0.000000
11
-20.984481
21
-11.517352
31
0.000000
0
LINE
8
CENTRELINES
10
-21.944481
20
-12.477352
30
0.000000
11
-21.944481
21
-10.557352
31
0.000000
0
CIRCLE
8
HOLES
10
-14.078493
20
-20.396218
30
0.000000
40
0.600000
0
POINT
8
HOLE_CENTRES
10
-14.078493
20
-20.396218
30
0.000000
0
LINE
8
CENTRELINES
10
-15.038493
20
-20.396218
30
0.000000
11
-13.118493
21
-20.396218
31
0.000000
0
LINE
8
CENTRELINES
10
-14.078493
20
-21.356218
30
0.000000
11
-14.078493
21
-19.436218
31
0.000000
0
CIRCLE
8
HOLES
10
-2.987291
20
-24.602556
30
0.000000
40
0.600000
0
POINT
8
HOLE_CENTRES
10
-2.987291
20
-24.602556
30
0.000000
0
LINE
8
CENTRELINES
10
-3.947291
20
-24.602556
30
0.000000
11
-2.027291
21
-24.602556
31
0.000000
0
LINE
8
CENTRELINES
10
-2.987291
20
-25.562556
30
0.000000
11
-2.987291
21
-23.642556
31
0.000000
0
CIRCLE
8
HOLES
10
8.788263
20
-23.172744
30
0.000000
40
0.600000
0
POINT
8
HOLE_CENTRES
10
8.788263
20
-23.172744
30
0.000000
0
LINE
8
CENTRELINES
10
7.828263
20
-23.172744
30
0.000000
11
9.748263
21
-23.172744
31
0.000000
0
LINE
8
CENTRELINES
10
8.788263
20
-24.132744
30
0.000000
11
8.788263
21
-22.212744
31
0.000000
0
CIRCLE
8
HOLES
10
18.550531
20
-16.434337
30
0.000000
40
0.600000
0
POINT
8
HOLE_CENTRES
10
18.550531
20
-16.434337
30
0.000000
0
LINE
8
CENTRELINES
10
17.590531
20
-16.434337
30
0.000000
11
19.510531
21
-16.434337
31
0.000000
0
LINE
8
CENTRELINES
10
18.550531
20
-17.394337
30
0.000000
11
18.550531
21
-15.474337
31
0.000000
0
CIRCLE
8
HOLES
10
24.063097
20
-5.931021
30
0.000000
40
0.600000
0
POINT
8
HOLE_CENTRES
10
24.063097
20
-5.931021
30
0.000000
0
LINE
8
CENTRELINES
10
23.103097
20
-5.931021
30
0.000000
11
25.023097
21
-5.931021
31
0.000000
0
LINE
8
CENTRELINES
10
24.063097
20
-6.891021
30
0.000000
11
24.063097
21
-4.971021
31
0.000000
0
CIRCLE
8
HOLES
10
37.174880
20
0.000000
30
0.000000
40
0.600000
0
POINT
8
HOLE_CENTRES
10
37.174880
20
0.000000
30
0.000000
0
LINE
8
CENTRELINES
10
36.214880
20
0.000000
30
0.000000
11
38.134880
21
0.000000
31
0.000000
0
LINE
8
CENTRELINES
10
37.174880
20
-0.960000
30
0.000000
11
37.174880
21
0.960000
31
0.000000
0
CIRCLE
8
HOLES
10
35.355412
20
11.487670
30
0.000000
40
0.600000
0
POINT
8
HOLE_CENTRES
10
35.355412
20
11.487670
30
0.000000
0
LINE
8
CENTRELINES
10
34.395412
20
11.487670
30
0.000000
11
36.315412
21
11.487670
31
0.000000
0
LINE
8
CENTRELINES
10
35.355412
20
10.527670
30
0.000000
11
35.355412
21
12.447670
31
0.000000
0
CIRCLE
8
HOLES
10
30.075110
20
21.850846
30
0.000000
40
0.600000
0
POINT
8
HOLE_CENTRES
10
30.075110
20
21.850846
30
0.000000
0
LINE
8
CENTRELINES
10
29.115110
20
21.850846
30
0.000000
11
31.035110
21
21.850846
31
0.000000
0
LINE
8
CENTRELINES
10
30.075110
20
20.890846
30
0.000000
11
30.075110
21
22.810846
31
0.000000
0
CIRCLE
8
HOLES
10
21.850846
20
30.075110
30
0.000000
40
0.600000
0
POINT
8
HOLE_CENTRES
10
21.850846
20
30.075110
30
0.000000
0
LINE
8
CENTRELINES
10
20.890846
20
30.075110
30
0.000000
11
22.810846
21
30.075110
31
0.000000
0
LINE
8
CENTRELINES
10
21.850846
20
29.115110
30
0.000000
11
21.850846
21
31.035110
31
0.000000
0
CIRCLE
8
HOLES
10
11.487670
20
35.355412
30
0.000000
40
0.600000
0
POINT
8
HOLE_CENTRES
10
11.487670
20
35.355412
30
0.000000
0
LINE
8
CENTRELINES
10
10.527670
20
35.355412
30
0.000000
11
12.447670
21
35.355412
31
0.000000
0
LINE
8
CENTRELINES
10
11.487670
20
34.395412
30
0.000000
11
11.487670
21
36.315412
31
0.000000
0
CIRCLE
8
HOLES
10
0.000000
20
37.174880
30
0.000000
40
0.600000
0
POINT
8
HOLE_CENTRES
10
0.000000
20
37.174880
30
0.000000
0
LINE
8
CENTRELINES
10
-0.960000
20
37.174880
30
0.000000
11
0.960000
21
37.174880
31
0.000000
0
LINE
8
CENTRELINES
10
0.000000
20
36.214880
30
0.000000
11
0.000000
21
38.134880
31
0.000000
0
CIRCLE
8
HOLES
10
-11.487670
20
35.355412
30
0.000000
40
0.600000
0
POINT
8
HOLE_CENTRES
10
-11.487670
20
35.355412
30
0.000000
0
LINE
8
CENTRELINES
10
-12.447670
20
35.355412
30
0.000000
11
-10.527670
21
35.355412
31
0.000000
0
LINE
8
CENTRELINES
10
-11.487670
20
34.395412
30
0.000000
11
-11.487670
21
36.315412
31
0.000000
0
CIRCLE
8
HOLES
10
-21.850846
20
30.075110
30
0.000000
40
0.600000
0
POINT
8
HOLE_CENTRES
10
-21.850846
20
30.075110
30
0.000000
0
LINE
8
CENTRELINES
10
-22.810846
20
30.075110
30
0.000000
11
-20.890846
21
30.075110
31
0.000000
0
LINE
8
CENTRELINES
10
-21.850846
20
29.115110
30
0.000000
11
-21.850846
21
31.035110
31
0.000000
0
CIRCLE
8
HOLES
10
-30.075110
20
21.850846
30
0.000000
40
0.600000
0
POINT
8
HOLE_CENTRES
10
-30.075110
20
21.850846
30
0.000000
0
LINE
8
CENTRELINES
10
-31.035110
20
21.850846
30
0.000000
11
-29.115110
21
21.850846
31
0.000000
0
LINE
8
CENTRELINES
10
-30.075110
20
20.890846
30
0.000000
11
-30.075110
21
22.810846
31
0.000000
0
CIRCLE
8
HOLES
10
-35.355412
20
11.487670
30
0.000000
40
0.600000
0
POINT
8
HOLE_CENTRES
10
-35.355412
20
11.487670
30
0.000000
0
LINE
8
CENTRELINES
10
-36.315412
20
11.487670
30
0.000000
11
-34.395412
21
11.487670
31
0.000000
0
LINE
8
CENTRELINES
10
-35.355412
20
10.527670
30
0.000000
11
-35.355412
21
12.447670
31
0.000000
0
CIRCLE
8
HOLES
10
-37.174880
20
0.000000
30
0.000000
40
0.600000
0
POINT
8
HOLE_CENTRES
10
-37.174880
20
0.000000
30
0.000000
0
LINE
8
CENTRELINES
10
-38.134880
20
0.000000
30
0.000000
11
-36.214880
21
0.000000
31
0.000000
0
LINE
8
CENTRELINES
10
-37.174880
20
-0.960000
30
0.000000
11
-37.174880
21
0.960000
31
0.000000
0
CIRCLE
8
HOLES
10
-35.355412
20
-11.487670
30
0.000000
40
0.600000
0
POINT
8
HOLE_CENTRES
10
-35.355412
20
-11.487670
30
0.000000
0
LINE
8
CENTRELINES
10
-36.315412
20
-11.487670
30
0.000000
11
-34.395412
21
-11.487670
31
0.000000
0
LINE
8
CENTRELINES
10
-35.355412
20
-12.447670
30
0.000000
11
-35.355412
21
-10.527670
31
0.000000
0
CIRCLE
8
HOLES
10
-30.075110
20
-21.850846
30
0.000000
40
0.600000
0
POINT
8
HOLE_CENTRES
10
-30.075110
20
-21.850846
30
0.000000
0
LINE
8
CENTRELINES
10
-31.035110
20
-21.850846
30
0.000000
11
-29.115110
21
-21.850846
31
0.000000
0
LINE
8
CENTRELINES
10
-30.075110
20
-22.810846
30
0.000000
11
-30.075110
21
-20.890846
31
0.000000
0
CIRCLE
8
HOLES
10
-21.850846
20
-30.075110
30
0.000000
40
0.600000
0
POINT
8
HOLE_CENTRES
10
-21.850846
20
-30.075110
30
0.000000
0
LINE
8
CENTRELINES
10
-22.810846
20
-30.075110
30
0.000000
11
-20.890846
21
-30.075110
31
0.000000
0
LINE
8
CENTRELINES
10
-21.850846
20
-31.035110
30
0.000000
11
-21.850846
21
-29.115110
31
0.000000
0
CIRCLE
8
HOLES
10
-11.487670
20
-35.355412
30
0.000000
40
0.600000
0
POINT
8
HOLE_CENTRES
10
-11.487670
20
-35.355412
30
0.000000
0
LINE
8
CENTRELINES
10
-12.447670
20
-35.355412
30
0.000000
11
-10.527670
21
-35.355412
31
0.000000
0
LINE
8
CENTRELINES
10
-11.487670
20
-36.315412
30
0.000000
11
-11.487670
21
-34.395412
31
0.000000
0
CIRCLE
8
HOLES
10
-0.000000
20
-37.174880
30
0.000000
40
0.600000
0
POINT
8
HOLE_CENTRES
10
-0.000000
20
-37.174880
30
0.000000
0
LINE
8
CENTRELINES
10
-0.960000
20
-37.174880
30
0.000000
11
0.960000
21
-37.174880
31
0.000000
0
LINE
8
CENTRELINES
10
-0.000000
20
-38.134880
30
0.000000
11
-0.000000
21
-36.214880
31
0.000000
0
CIRCLE
8
HOLES
10
11.487670
20
-35.355412
30
0.000000
40
0.600000
0
POINT
8
HOLE_CENTRES
10
11.487670
20
-35.355412
30
0.000000
0
LINE
8
CENTRELINES
10
10.527670
20
-35.355412
30
0.000000
11
12.447670
21
-35.355412
31
0.000000
0
LINE
8
CENTRELINES
10
11.487670
20
-36.315412
30
0.000000
11
11.487670
21
-34.395412
31
0.000000
0
CIRCLE
8
HOLES
10
21.850846
20
-30.075110
30
0.000000
40
0.600000
0
POINT
8
HOLE_CENTRES
10
21.850846
20
-30.075110
30
0.000000
0
LINE
8
CENTRELINES
10
20.890846
20
-30.075110
30
0.000000
11
22.810846
21
-30.075110
31
0.000000
0
LINE
8
CENTRELINES
10
21.850846
20
-31.035110
30
0.000000
11
21.850846
21
-29.115110
31
0.000000
0
CIRCLE
8
HOLES
10
30.075110
20
-21.850846
30
0.000000
40
0.600000
0
POINT
8
HOLE_CENTRES
10
30.075110
20
-21.850846
30
0.000000
0
LINE
8
CENTRELINES
10
29.115110
20
-21.850846
30
0.000000
11
31.035110
21
-21.850846
31
0.000000
0
LINE
8
CENTRELINES
10
30.075110
20
-22.810846
30
0.000000
11
30.075110
21
-20.890846
31
0.000000
0
CIRCLE
8
HOLES
10
35.355412
20
-11.487670
30
0.000000
40
0.600000
0
POINT
8
HOLE_CENTRES
10
35.355412
20
-11.487670
30
0.000000
0
LINE
8
CENTRELINES
10
34.395412
20
-11.487670
30
0.000000
11
36.315412
21
-11.487670
31
0.000000
0
LINE
8
CENTRELINES
10
35.355412
20
-12.447670
30
0.000000
11
35.355412
21
-10.527670
31
0.000000
0
LINE
8
SECTION
10
-42.926000
20
-66.357500
30
0.000000
11
42.926000
21
-66.357500
31
0.000000
0
LINE
8
SECTION
10
-42.926000
20
-53.657500
30
0.000000
11
42.926000
21
-53.657500
31
0.000000
0
LINE
8
SECTION
10
-42.926000
20
-66.357500
30
0.000000
11
-42.926000
21
-53.657500
31
0.000000
0
LINE
8
SECTION
10
42.926000
20
-66.357500
30
0.000000
11
42.926000
21
-53.657500
31
0.000000
0
LINE
8
SECTION
10
-0.600000
20
-66.357500
30
0.000000
11
-0.600000
21
-53.657500
31
0.000000
0
LINE
8
SECTION
10
0.600000
20
-66.357500
30
0.000000
11
0.600000
21
-53.657500
31
0.000000
0
LINE
8
SECTION
10
11.791627
20
-66.357500
30
0.000000
11
11.791627
21
-53.657500
31
0.000000
0
LINE
8
SECTION
10
12.991627
20
-66.357500
30
0.000000
11
12.991627
21
-53.657500
31
0.000000
0
LINE
8
SECTION
10
5.595813
20
-66.357500
30
0.000000
11
5.595813
21
-53.657500
31
0.000000
0
LINE
8
SECTION
10
6.795813
20
-66.357500
30
0.000000
11
6.795813
21
-53.657500
31
0.000000
0
LINE
8
SECTION
10
-6.795813
20
-66.357500
30
0.000000
11
-6.795813
21
-53.657500
31
0.000000
0
LINE
8
SECTION
10
-5.595813
20
-66.357500
30
0.000000
11
-5.595813
21
-53.657500
31
0.000000
0
LINE
8
SECTION
10
-12.991627
20
-66.357500
30
0.000000
11
-12.991627
21
-53.657500
31
0.000000
0
LINE
8
SECTION
10
-11.791627
20
-66.357500
30
0.000000
11
-11.791627
21
-53.657500
31
0.000000
0
LINE
8
SECTION
10
-6.795813
20
-66.357500
30
0.000000
11
-6.795813
21
-53.657500
31
0.000000
0
LINE
8
SECTION
10
-5.595813
20
-66.357500
30
0.000000
11
-5.595813
21
-53.657500
31
0.000000
0
LINE
8
SECTION
10
5.595813
20
-66.357500
30
0.000000
11
5.595813
21
-53.657500
31
0.000000
0
LINE
8
SECTION
10
6.795813
20
-66.357500
30
0.000000
11
6.795813
21
-53.657500
31
0.000000
0
LINE
8
SECTION
10
23.463097
20
-66.357500
30
0.000000
11
23.463097
21
-53.657500
31
0.000000
0
LINE
8
SECTION
10
24.663097
20
-66.357500
30
0.000000
11
24.663097
21
-53.657500
31
0.000000
0
LINE
8
SECTION
10
17.950531
20
-66.357500
30
0.000000
11
17.950531
21
-53.657500
31
0.000000
0
LINE
8
SECTION
10
19.150531
20
-66.357500
30
0.000000
11
19.150531
21
-53.657500
31
0.000000
0
LINE
8
SECTION
10
8.188263
20
-66.357500
30
0.000000
11
8.188263
21
-53.657500
31
0.000000
0
LINE
8
SECTION
10
9.388263
20
-66.357500
30
0.000000
11
9.388263
21
-53.657500
31
0.000000
0
LINE
8
SECTION
10
-3.587291
20
-66.357500
30
0.000000
11
-3.587291
21
-53.657500
31
0.000000
0
LINE
8
SECTION
10
-2.387291
20
-66.357500
30
0.000000
11
-2.387291
21
-53.657500
31
0.000000
0
LINE
8
SECTION
10
-14.678493
20
-66.357500
30
0.000000
11
-14.678493
21
-53.657500
31
0.000000
0
LINE
8
SECTION
10
-13.478493
20
-66.357500
30
0.000000
11
-13.478493
21
-53.657500
31
0.000000
0
LINE
8
SECTION
10
-22.544481
20
-66.357500
30
0.000000
11
-22.544481
21
-53.657500
31
0.000000
0
LINE
8
SECTION
10
-21.344481
20
-66.357500
30
0.000000
11
-21.344481
21
-53.657500
31
0.000000
0
LINE
8
SECTION
10
-25.383253
20
-66.357500
30
0.000000
11
-25.383253
21
-53.657500
31
0.000000
0
LINE
8
SECTION
10
-24.183253
20
-66.357500
30
0.000000
11
-24.183253
21
-53.657500
31
0.000000
0
LINE
8
SECTION
10
-22.544481
20
-66.357500
30
0.000000
11
-22.544481
21
-53.657500
31
0.000000
0
LINE
8
SECTION
10
-21.344481
20
-66.357500
30
0.000000
11
-21.344481
21
-53.657500
31
0.000000
0
LINE
8
SECTION
10
-14.678493
20
-66.357500
30
0.000000
11
-14.678493
21
-53.657500
31
0.000000
0
LINE
8
SECTION
10
-13.478493
20
-66.357500
30
0.000000
11
-13.478493
21
-53.657500
31
0.000000
0
LINE
8
SECTION
10
-3.587291
20
-66.357500
30
0.000000
11
-3.587291
21
-53.657500
31
0.000000
0
LINE
8
SECTION
10
-2.387291
20
-66.357500
30
0.000000
11
-2.387291
21
-53.657500
31
0.000000
0
LINE
8
SECTION
10
8.188263
20
-66.357500
30
0.000000
11
8.188263
21
-53.657500
31
0.000000
0
LINE
8
SECTION
10
9.388263
20
-66.357500
30
0.000000
11
9.388263
21
-53.657500
31
0.000000
0
LINE
8
SECTION
10
17.950531
20
-66.357500
30
0.000000
11
17.950531
21
-53.657500
31
0.000000
0
LINE
8
SECTION
10
19.150531
20
-66.357500
30
0.000000
11
19.150531
21
-53.657500
31
0.000000
0
LINE
8
SECTION
10
23.463097
20
-66.357500
30
0.000000
11
23.463097
21
-53.657500
31
0.000000
0
LINE
8
SECTION
10
24.663097
20
-66.357500
30
0.000000
11
24.663097
21
-53.657500
31
0.000000
0
LINE
8
SECTION
10
36.574880
20
-66.357500
30
0.000000
11
36.574880
21
-53.657500
31
0.000000
0
LINE
8
SECTION
10
37.774880
20
-66.357500
30
0.000000
11
37.774880
21
-53.657500
31
0.000000
0
LINE
8
SECTION
10
34.755412
20
-66.357500
30
0.000000
11
34.755412
21
-53.657500
31
0.000000
0
LINE
8
SECTION
10
35.955412
20
-66.357500
30
0.000000
11
35.955412
21
-53.657500
31
0.000000
0
LINE
8
SECTION
10
29.475110
20
-66.357500
30
0.000000
11
29.475110
21
-53.657500
31
0.000000
0
LINE
8
SECTION
10
30.675110
20
-66.357500
30
0.000000
11
30.675110
21
-53.657500
31
0.000000
0
LINE
8
SECTION
10
21.250846
20
-66.357500
30
0.000000
11
21.250846
21
-53.657500
31
0.000000
0
LINE
8
SECTION
10
22.450846
20
-66.357500
30
0.000000
11
22.450846
21
-53.657500
31
0.000000
0
LINE
8
SECTION
10
10.887670
20
-66.357500
30
0.000000
11
10.887670
21
-53.657500
31
0.000000
0
LINE
8
SECTION
10
12.087670
20
-66.357500
30
0.000000
11
12.087670
21
-53.657500
31
0.000000
0
LINE
8
SECTION
10
-0.600000
20
-66.357500
30
0.000000
11
-0.600000
21
-53.657500
31
0.000000
0
LINE
8
SECTION
10
0.600000
20
-66.357500
30
0.000000
11
0.600000
21
-53.657500
31
0.000000
0
LINE
8
SECTION
10
-12.087670
20
-66.357500
30
0.000000
11
-12.087670
21
-53.657500
31
0.000000
0
LINE
8
SECTION
10
-10.887670
20
-66.357500
30
0.000000
11
-10.887670
21
-53.657500
31
0.000000
0
LINE
8
SECTION
10
-22.450846
20
-66.357500
30
0.000000
11
-22.450846
21
-53.657500
31
0.000000
0
LINE
8
SECTION
10
-21.250846
20
-66.357500
30
0.000000
11
-21.250846
21
-53.657500
31
0.000000
0
LINE
8
SECTION
10
-30.675110
20
-66.357500
30
0.000000
11
-30.675110
21
-53.657500
31
0.000000
0
LINE
8
SECTION
10
-29.475110
20
-66.357500
30
0.000000
11
-29.475110
21
-53.657500
31
0.000000
0
LINE
8
SECTION
10
-35.955412
20
-66.357500
30
0.000000
11
-35.955412
21
-53.657500
31
0.000000
0
LINE
8
SECTION
10
-34.755412
20
-66.357500
30
0.000000
11
-34.755412
21
-53.657500
31
0.000000
0
LINE
8
SECTION
10
-37.774880
20
-66.357500
30
0.000000
11
-37.774880
21
-53.657500
31
0.000000
0
LINE
8
SECTION
10
-36.574880
20
-66.357500
30
0.000000
11
-36.574880
21
-53.657500
31
0.000000
0
LINE
8
SECTION
10
-35.955412
20
-66.357500
30
0.000000
11
-35.955412
21
-53.657500
31
0.000000
0
LINE
8
SECTION
10
-34.755412
20
-66.357500
30
0.000000
11
-34.755412
21
-53.657500
31
0.000000
0
LINE
8
SECTION
10
-30.675110
20
-66.357500
30
0.000000
11
-30.675110
21
-53.657500
31
0.000000
0
LINE
8
SECTION
10
-29.475110
20
-66.357500
30
0.000000
11
-29.475110
21
-53.657500
31
0.000000
0
LINE
8
SECTION
10
-22.450846
20
-66.357500
30
0.000000
11
-22.450846
21
-53.657500
31
0.000000
0
LINE
8
SECTION
10
-21.250846
20
-66.357500
30
0.000000
11
-21.250846
21
-53.657500
31
0.000000
0
LINE
8
SECTION
10
-12.087670
20
-66.357500
30
0.000000
11
-12.087670
21
-53.657500
31
0.000000
0
LINE
8
SECTION
10
-10.887670
20
-66.357500
30
0.000000
11
-10.887670
21
-53.657500
31
0.000000
0
LINE
8
SECTION
10
-0.600000
20
-66.357500
30
0.000000
11
-0.600000
21
-53.657500
31
0.000000
0
LINE
8
SECTION
10
0.600000
20
-66.357500
30
0.000000
11
0.600000
21
-53.657500
31
0.000000
0
LINE
8
SECTION
10
10.887670
20
-66.357500
30
0.000000
11
10.887670
21
-53.657500
31
0.000000
0
LINE
8
SECTION
10
12.087670
20
-66.357500
30
0.000000
11
12.087670
21
-53.657500
31
0.000000
0
LINE
8
SECTION
10
21.250846
20
-66.357500
30
0.000000
11
21.250846
21
-53.657500
31
0.000000
0
LINE
8
SECTION
10
22.450846
20
-66.357500
30
0.000000
11
22.450846
21
-53.657500
31
0.000000
0
LINE
8
SECTION
10
29.475110
20
-66.357500
30
0.000000
11
29.475110
21
-53.657500
31
0.000000
0
LINE
8
SECTION
10
30.675110
20
-66.357500
30
0.000000
11
30.675110
21
-53.657500
31
0.000000
0
LINE
8
SECTION
10
34.755412
20
-66.357500
30
0.000000
11
34.755412
21
-53.657500
31
0.000000
0
LINE
8
SECTION
10
35.955412
20
-66.357500
30
0.000000
11
35.955412
21
-53.657500
31
0.000000
0
TEXT
8
ANNOTATION
10
-42.926000
20
85.422740
30
0.000000
40
1.931670
1
INJECTOR ORIFICE PLATE  /  INJ-PLATE-V2.2C
7
STANDARD
0
TEXT
8
ANNOTATION
10
-42.926000
20
81.945734
30
0.000000
40
1.931670
1
PLATE %%c85.85 x 12.70 THK
7
STANDARD
0
TEXT
8
ANNOTATION
10
-42.926000
20
78.468728
30
0.000000
40
1.931670
1
40 x %%c1.200 THRU  (TOTAL AREA 45.24 mm2, L/D 10.58)
7
STANDARD
0
TEXT
8
ANNOTATION
10
-42.926000
20
74.991722
30
0.000000
40
1.931670
1
6 x %%c1.200 EQ SP ON %%c24.78 B.C.
7
STANDARD
0
TEXT
8
ANNOTATION
10
-42.926000
20
71.514716
30
0.000000
40
1.931670
1
13 x %%c1.200 EQ SP ON %%c49.57 B.C. (STAGGERED 13.85%%d)
7
STANDARD
0
TEXT
8
ANNOTATION
10
-42.926000
20
68.037710
30
0.000000
40
1.931670
1
20 x %%c1.200 EQ SP ON %%c74.35 B.C.
7
STANDARD
0
TEXT
8
ANNOTATION
10
-42.926000
20
64.560704
30
0.000000
40
1.931670
1
MIN WEB 10.43   EDGE MARGIN 5.15
7
STANDARD
0
TEXT
8
ANNOTATION
10
-42.926000
20
61.083698
30
0.000000
40
1.931670
1
UNITS mm. ORIGIN AT PLATE CENTRE. VIEWED FROM INLET FACE.
7
STANDARD
0
TEXT
8
ANNOTATION
10
-42.926000
20
57.606692
30
0.000000
40
1.931670
1
SIZED WITH HEM MODEL, Cd 0.700
7
STANDARD
0
TEXT
8
ANNOTATION
10
-42.926000
20
54.129686
30
0.000000
40
1.931670
1
PROJECT Mini Hybrid V2.2
7
STANDARD
0
TEXT
8
ANNOTATION
10
-42.926000
20
50.652680
30
0.000000
40
1.931670
1
GENERATED 2026-09-26 BY HASTE
7
STANDARD
0
ENDSEC
0
EOF
